<svg width="117" height="83" viewBox="0 0 117 83" fill="none" xmlns="http://www.w3.org/2000/svg">
<path d="M4.56 8.3C3.44 8.3 2.5 7.94 1.74 7.22C0.98 6.48 0.6 5.54 0.6 4.4C0.6 3.24 0.98 2.31 1.74 1.61C2.5 0.91 3.44 0.56 4.56 0.56C5.68 0.56 6.62 0.91 7.38 1.61C8.14 2.31 8.52 3.24 8.52 4.4C8.52 5.54 8.14 6.48 7.38 7.22C6.62 7.94 5.68 8.3 4.56 8.3ZM58.642 8.3C57.522 8.3 56.582 7.94 55.822 7.22C55.062 6.48 54.682 5.54 54.682 4.4C54.682 3.24 55.062 2.31 55.822 1.61C56.582 0.91 57.522 0.56 58.642 0.56C59.762 0.56 60.702 0.91 61.462 1.61C62.222 2.31 62.602 3.24 62.602 4.4C62.602 5.54 62.222 6.48 61.462 7.22C60.702 7.94 59.762 8.3 58.642 8.3ZM112.724 8.3C111.604 8.3 110.664 7.94 109.904 7.22C109.144 6.48 108.764 5.54 108.764 4.4C108.764 3.24 109.144 2.31 109.904 1.61C110.664 0.91 111.604 0.56 112.724 0.56C113.844 0.56 114.784 0.91 115.544 1.61C116.304 2.31 116.684 3.24 116.684 4.4C116.684 5.54 116.304 6.48 115.544 7.22C114.784 7.94 113.844 8.3 112.724 8.3ZM4.56 45.3C3.44 45.3 2.5 44.94 1.74 44.22C0.98 43.48 0.6 42.54 0.6 41.4C0.6 40.24 0.98 39.31 1.74 38.61C2.5 37.91 3.44 37.56 4.56 37.56C5.68 37.56 6.62 37.91 7.38 38.61C8.14 39.31 8.52 40.24 8.52 41.4C8.52 42.54 8.14 43.48 7.38 44.22C6.62 44.94 5.68 45.3 4.56 45.3ZM58.642 45.3C57.522 45.3 56.582 44.94 55.822 44.22C55.062 43.48 54.682 42.54 54.682 41.4C54.682 40.24 55.062 39.31 55.822 38.61C56.582 37.91 57.522 37.56 58.642 37.56C59.762 37.56 60.702 37.91 61.462 38.61C62.222 39.31 62.602 40.24 62.602 41.4C62.602 42.54 62.222 43.48 61.462 44.22C60.702 44.94 59.762 45.3 58.642 45.3ZM4.56 82.3C3.44 82.3 2.5 81.94 1.74 81.22C0.98 80.48 0.6 79.54 0.6 78.4C0.6 77.24 0.98 76.31 1.74 75.61C2.5 74.91 3.44 74.56 4.56 74.56C5.68 74.56 6.62 74.91 7.38 75.61C8.14 76.31 8.52 77.24 8.52 78.4C8.52 79.54 8.14 80.48 7.38 81.22C6.62 81.94 5.68 82.3 4.56 82.3ZM58.642 82.3C57.522 82.3 56.582 81.94 55.822 81.22C55.062 80.48 54.682 79.54 54.682 78.4C54.682 77.24 55.062 76.31 55.822 75.61C56.582 74.91 57.522 74.56 58.642 74.56C59.762 74.56 60.702 74.91 61.462 75.61C62.222 76.31 62.602 77.24 62.602 78.4C62.602 79.54 62.222 80.48 61.462 81.22C60.702 81.94 59.762 82.3 58.642 82.3Z" fill="white"/>
</svg>
