<svg width="60" height="60" viewBox="0 0 60 60" fill="none" xmlns="http://www.w3.org/2000/svg">
<g clip-path="url(#clip0_30_354)">
<path d="M23.7225 0.0104297L25.545 0.00292969H34.455L36.28 0.0104297L38.565 0.0354297L39.6475 0.0529297L40.6925 0.0804297L41.7 0.11543L42.67 0.15543L43.605 0.20793L44.505 0.27043L45.3675 0.34543L46.2 0.42793C50.55 0.91793 53.5325 1.96793 55.7825 4.21793C58.0325 6.46793 59.0825 9.44793 59.5725 13.8004L59.6575 14.6329L59.73 15.4979L59.7925 16.3979L59.8425 17.3304L59.905 18.8004L59.935 19.8254L59.9675 21.4354L59.99 23.7229L60 26.1729L59.9975 34.4554L59.99 36.2804L59.965 38.5654L59.9475 39.6479L59.92 40.6929L59.885 41.7004L59.845 42.6704L59.7925 43.6054L59.73 44.5054L59.655 45.3679L59.5725 46.2004C59.0825 50.5504 58.0325 53.5329 55.7825 55.7829C53.5325 58.0329 50.5525 59.0829 46.2 59.5729L45.3675 59.6579L44.5025 59.7304L43.6025 59.7929L42.67 59.8429L41.2 59.9054L40.175 59.9354L38.565 59.9679L36.2775 59.9904L33.8275 60.0004L25.545 59.9979L23.72 59.9904L21.435 59.9654L20.3525 59.9479L19.3075 59.9204L18.3 59.8854L17.33 59.8454L16.395 59.7929L15.495 59.7304L14.6325 59.6554L13.8 59.5729C9.45 59.0829 6.4675 58.0329 4.2175 55.7829C1.9675 53.5329 0.9175 50.5529 0.4275 46.2004L0.3425 45.3679L0.27 44.5029L0.2075 43.6029L0.1575 42.6704L0.095 41.2004L0.065 40.1754L0.0325 38.5654L0.01 36.2779L0 33.8279L0.0025 25.5454L0.01 23.7204L0.035 21.4354L0.0525 20.3529L0.08 19.3079L0.115 18.3004L0.155 17.3304L0.2075 16.3954L0.27 15.4954L0.345 14.6329L0.4275 13.8004C0.9175 9.45043 1.9675 6.46793 4.2175 4.21793C6.4675 1.96793 9.4475 0.91793 13.8 0.42793L14.6325 0.34293L15.4975 0.27043L16.3975 0.20793L17.33 0.15793L18.8 0.0954297L19.825 0.0654297L21.435 0.0329297L23.7225 0.0104297ZM16.975 18.2504H10.125C10.45 33.8504 18.25 43.2254 31.925 43.2254H32.7V34.3004C37.725 34.8004 41.525 38.4754 43.05 43.2254H50.15C48.2 36.1254 43.075 32.2004 39.875 30.7004C43.075 28.8504 47.575 24.3504 48.65 18.2504H42.2C40.8 23.2004 36.65 27.7004 32.7 28.1254V18.2504H26.25V35.5504C22.25 34.5504 17.2 29.7004 16.975 18.2504Z" fill="#5C75B8"/>
</g>
<defs>
<clipPath id="clip0_30_354">
<rect width="60" height="60" fill="white"/>
</clipPath>
</defs>
</svg>
