<svg width="70" height="70" viewBox="0 0 70 70" fill="none" xmlns="http://www.w3.org/2000/svg">
<path d="M54.6293 15.7795L50.8959 18.6962L35.0001 30.5087L19.1043 18.5795L15.3709 15.6629C14.4914 14.9353 13.4178 14.4817 12.283 14.3584C11.1483 14.235 10.0023 14.4473 8.98696 14.9689C7.97167 15.4906 7.13172 16.2986 6.57118 17.2929C6.01063 18.2872 5.75413 19.4242 5.83344 20.5629V54.367C5.83344 55.419 6.25135 56.428 6.99525 57.1719C7.73914 57.9158 8.74808 58.3337 9.8001 58.3337H19.1043V35.817L35.0001 47.7462L50.8959 35.817V58.3337H60.2001C61.2521 58.3337 62.2611 57.9158 63.005 57.1719C63.7489 56.428 64.1668 55.419 64.1668 54.367V20.5629C64.2215 19.434 63.9472 18.3135 63.3771 17.3377C62.807 16.3618 61.9657 15.5726 60.9554 15.0659C59.9452 14.5592 58.8095 14.3569 57.6864 14.4836C56.5633 14.6103 55.5013 15.0605 54.6293 15.7795Z" fill="#6E6BB5"/>
</svg>
