<svg width="70" height="70" viewBox="0 0 70 70" fill="none" xmlns="http://www.w3.org/2000/svg">
<path d="M33.3662 28.3486V20.7402L20.5693 29.2578L26.2842 33.0723L33.3662 28.3486ZM50.7363 37.7617V32.3066L46.6484 35.0342L50.7363 37.7617ZM35 4.375C18.0879 4.375 4.375 18.0879 4.375 35C4.375 51.9121 18.0879 65.625 35 65.625C51.9121 65.625 65.625 51.9121 65.625 35C65.625 18.0879 51.9121 4.375 35 4.375ZM54.0039 40.8105C54.0039 40.8857 53.9971 40.9541 53.9902 41.0225C53.9902 41.0498 53.9834 41.0703 53.9766 41.0908C53.9669 41.1656 53.9486 41.239 53.9219 41.3096C53.9082 41.3506 53.8945 41.3916 53.8809 41.4258C53.8672 41.4531 53.8535 41.4805 53.8467 41.5078C53.8262 41.542 53.8125 41.583 53.792 41.6172C53.7783 41.6445 53.7646 41.665 53.7441 41.6924C53.7236 41.7266 53.6963 41.7607 53.6758 41.7949C53.6553 41.8223 53.6416 41.8428 53.6211 41.8633C53.5938 41.8906 53.5664 41.9248 53.5391 41.9521C53.5186 41.9727 53.498 41.9932 53.4707 42.0137C53.4434 42.041 53.4092 42.0684 53.375 42.0889C53.3477 42.1094 53.3271 42.1299 53.2998 42.1436C53.293 42.1504 53.2793 42.1572 53.2725 42.1641L35.9023 53.7305C35.6289 53.915 35.3145 54.0039 35 54.0039C34.6787 54.0039 34.3643 53.9082 34.0908 53.7305L16.7207 42.1709C16.7139 42.1641 16.7002 42.1572 16.6934 42.1504L16.6182 42.0957C16.584 42.0684 16.5566 42.0479 16.5293 42.0205C16.5088 42 16.4883 41.9795 16.4609 41.959C16.4336 41.9316 16.4062 41.9043 16.3789 41.8701C16.3586 41.849 16.3403 41.8262 16.3242 41.8018C16.2969 41.7676 16.2764 41.7334 16.2559 41.6992C16.2422 41.6719 16.2217 41.6514 16.208 41.624C16.1875 41.5898 16.167 41.5488 16.1533 41.5146C16.1396 41.4873 16.126 41.46 16.1191 41.4326C16.1055 41.3916 16.0918 41.3506 16.0781 41.3164C16.0713 41.2891 16.0576 41.2617 16.0508 41.2344C16.0371 41.1865 16.0303 41.1455 16.0234 41.0977C16.0166 41.0771 16.0166 41.0498 16.0098 41.0293C16.0029 40.9609 15.9961 40.8857 15.9961 40.8174V29.251C15.9961 29.1826 16.0029 29.1074 16.0098 29.0391C16.0166 29.0186 16.0166 28.9912 16.0234 28.9707C16.0331 28.8959 16.0514 28.8225 16.0781 28.752C16.0918 28.7109 16.1055 28.6699 16.1191 28.6357C16.1328 28.6084 16.1465 28.5811 16.1533 28.5537C16.167 28.5195 16.1875 28.4785 16.208 28.4443C16.2217 28.417 16.2354 28.3965 16.2559 28.3691C16.2969 28.3076 16.3379 28.2529 16.3789 28.1982C16.4062 28.1709 16.4336 28.1367 16.4609 28.1094C16.4814 28.0889 16.502 28.0684 16.5293 28.0479C16.5566 28.0205 16.5908 27.9932 16.6182 27.9727C16.6455 27.9521 16.666 27.9316 16.6934 27.918C16.7002 27.9111 16.7139 27.9043 16.7207 27.8975L34.0908 16.3379C34.6377 15.9756 35.3555 15.9756 35.9023 16.3379L53.2725 27.8975C53.2793 27.9043 53.293 27.9111 53.2998 27.918L53.375 27.9727L53.4707 28.0479C53.4912 28.0684 53.5117 28.0889 53.5391 28.1094C53.5664 28.1367 53.5938 28.1641 53.6211 28.1982C53.6689 28.2529 53.71 28.3076 53.7441 28.3691C53.7578 28.3965 53.7783 28.417 53.792 28.4443C53.8125 28.4785 53.833 28.5127 53.8467 28.5537C53.8604 28.5811 53.874 28.6084 53.8809 28.6357C53.8945 28.6768 53.9082 28.7178 53.9219 28.752C53.9287 28.7793 53.9424 28.8066 53.9492 28.834C53.9629 28.8818 53.9697 28.9229 53.9766 28.9707C53.9834 28.9912 53.9834 29.0186 53.9902 29.0391C53.9971 29.1074 54.0039 29.1826 54.0039 29.251V40.8105ZM36.6338 41.7197V49.3281L49.4307 40.8105L43.7158 36.9961L36.6338 41.7197ZM19.2637 32.3066V37.7617L23.3516 35.0342L19.2637 32.3066ZM35 31.1787L29.2236 35.0342L35 38.8896L40.7764 35.0342L35 31.1787ZM49.4307 29.2578L36.6338 20.7402V28.3486L43.7158 33.0723L49.4307 29.2578ZM26.2842 36.9961L20.5693 40.8105L33.3662 49.3281V41.7197L26.2842 36.9961Z" fill="#7E62B0"/>
</svg>
